<svg width="15" height="15" viewBox="0 0 15 15" fill="none" xmlns="http://www.w3.org/2000/svg">
<path fill-rule="evenodd" clip-rule="evenodd" d="M0.559998 7.8001C0.559998 3.8401 3.8 0.600098 7.76 0.600098C11.72 0.600098 14.96 3.8401 14.96 7.8001C14.96 11.7601 11.72 15.0001 7.76 15.0001C3.8 15.0001 0.559998 11.7601 0.559998 7.8001ZM11.36 6.00003C11.36 5.42403 10.856 4.92003 10.28 4.92003C9.70401 4.92003 9.20001 5.42403 9.20001 6.00003C9.20001 6.57603 9.70401 7.08003 10.28 7.08003C10.856 7.08003 11.36 6.57603 11.36 6.00003ZM5.23999 4.92003C5.81599 4.92003 6.31999 5.42403 6.31999 6.00003C6.31999 6.57603 5.81599 7.08003 5.23999 7.08003C4.66399 7.08003 4.15999 6.57603 4.15999 6.00003C4.15999 5.42403 4.66399 4.92003 5.23999 4.92003ZM3.728 9.24002C4.304 10.896 5.888 12.12 7.76 12.12C9.632 12.12 11.216 10.896 11.792 9.24002H3.728Z" fill="#F44A4A"/>
</svg>
