<svg width="17" height="16" viewBox="0 0 17 16" fill="none" xmlns="http://www.w3.org/2000/svg">
<path opacity="0.3" d="M1.72645 14.3763C2.90778 15.5806 4.83007 15.5819 6.01197 14.3763L12.8684 7.38721C13.2129 7.03969 13.4034 6.57331 13.4046 6.07674C13.4076 5.08424 12.5559 4.21663 11.5823 4.21906C11.0953 4.22026 10.6384 4.41456 10.2951 4.76811L4.2974 10.8818C4.06066 11.1238 4.06066 11.5141 4.2974 11.7554C4.53413 11.9967 4.91764 11.9967 5.15438 11.7554L11.1539 5.63932C11.2705 5.51985 11.4226 5.45529 11.5853 5.45471C11.9097 5.45471 12.1926 5.74311 12.1926 6.07373C12.1919 6.23965 12.1286 6.39472 12.0132 6.51114L5.15438 13.5027C4.44595 14.2267 3.29246 14.2267 2.58343 13.5027C1.8744 12.7811 1.8744 11.6046 2.58343 10.8818L10.2969 3.0184C11.4782 1.81411 13.4011 1.81411 14.5824 3.0184C15.7637 4.22269 15.7637 6.18292 14.5824 7.38721L8.58288 13.5027C8.34614 13.744 8.34614 14.135 8.58288 14.3763C8.81962 14.6177 9.20313 14.6177 9.43986 14.3763L15.4394 8.26085C17.0935 6.57451 17.0935 3.83057 15.4394 2.14476C13.7858 0.458419 11.0941 0.458419 9.43986 2.14476L1.72645 10.0081C0.544512 11.213 0.544512 13.172 1.72645 14.3763Z" fill="#292F4C"/>
<mask id="mask0_4307_24" style="mask-type:alpha" maskUnits="userSpaceOnUse" x="0" y="0" width="17" height="16">
<path d="M1.72645 14.3763C2.90778 15.5806 4.83007 15.5819 6.01197 14.3763L12.8684 7.38721C13.2129 7.03969 13.4034 6.57331 13.4046 6.07674C13.4076 5.08424 12.5559 4.21663 11.5823 4.21906C11.0953 4.22026 10.6384 4.41456 10.2951 4.76811L4.2974 10.8818C4.06066 11.1238 4.06066 11.5141 4.2974 11.7554C4.53413 11.9967 4.91764 11.9967 5.15438 11.7554L11.1539 5.63932C11.2705 5.51985 11.4226 5.45529 11.5853 5.45471C11.9097 5.45471 12.1926 5.74311 12.1926 6.07373C12.1919 6.23965 12.1286 6.39472 12.0132 6.51114L5.15438 13.5027C4.44595 14.2267 3.29246 14.2267 2.58343 13.5027C1.8744 12.7811 1.8744 11.6046 2.58343 10.8818L10.2969 3.0184C11.4782 1.81411 13.4011 1.81411 14.5824 3.0184C15.7637 4.22269 15.7637 6.18292 14.5824 7.38721L8.58288 13.5027C8.34614 13.744 8.34614 14.135 8.58288 14.3763C8.81962 14.6177 9.20313 14.6177 9.43986 14.3763L15.4394 8.26085C17.0935 6.57451 17.0935 3.83057 15.4394 2.14476C13.7858 0.458419 11.0941 0.458419 9.43986 2.14476L1.72645 10.0081C0.544512 11.213 0.544512 13.172 1.72645 14.3763Z" fill="white"/>
</mask>
<g mask="url(#mask0_4307_24)">
</g>
</svg>
