<svg width="13" height="12" viewBox="0 0 13 12" fill="none" xmlns="http://www.w3.org/2000/svg">
<g opacity="0.3">
<path d="M12.011 9.38271L11.9523 9.20991C11.8134 8.80619 11.3581 8.38513 10.9398 8.2742L9.3916 7.86067C8.97177 7.74899 8.37288 7.89916 8.06571 8.19948L7.5054 8.74734C5.46912 8.20934 3.87235 6.64801 3.32286 4.65736L3.8832 4.10948C4.19037 3.80913 4.34393 3.22433 4.22971 2.81382L3.80755 1.29932C3.69333 0.889558 3.26191 0.444351 2.8498 0.310019L2.67308 0.25192C2.26018 0.117587 1.67132 0.253441 1.36417 0.553763L0.526032 1.37403C0.376298 1.51966 0.2806 1.93621 0.2806 1.93773C0.251286 4.53962 1.2947 7.04642 3.17701 8.88692C5.05469 10.7229 7.60885 11.7416 10.2621 11.7197C10.276 11.7197 10.7144 11.6277 10.8641 11.482L11.7023 10.6625C12.0094 10.3622 12.1483 9.78643 12.011 9.38271Z" fill="#292F4C"/>
</g>
</svg>
