<svg width="9" height="9" viewBox="0 0 9 9" fill="none" xmlns="http://www.w3.org/2000/svg">
<path d="M7.57302 5.02459L5.10474 5.02473L5.10466 7.49295C5.10459 7.86015 4.80712 8.15761 4.43993 8.15768C4.25649 8.15768 4.09035 8.08333 3.97016 7.96314C3.84978 7.84275 3.77534 7.67667 3.77548 7.49324L3.77544 5.0246L1.30691 5.02464C1.12349 5.02465 0.957336 4.95029 0.837042 4.83C0.716784 4.70974 0.642432 4.54374 0.642432 4.36016C0.642423 3.99305 0.939897 3.69557 1.30716 3.69543L3.77535 3.69531L3.77545 1.22701C3.77545 0.859883 4.07298 0.56235 4.44011 0.562348C4.80706 0.562452 5.10441 0.859806 5.10458 1.22683L5.10468 3.69534L7.5731 3.69534C7.94016 3.69555 8.23754 3.99294 8.23761 4.35986C8.23768 4.72705 7.94015 5.02458 7.57302 5.02459Z" fill="white"/>
</svg>
