<svg width="15" height="15" viewBox="0 0 15 15" fill="none" xmlns="http://www.w3.org/2000/svg">
<path opacity="0.12" d="M13.9132 3.4364L9.55011 7.8L13.9132 12.1634C14.5622 12.8126 14.5622 13.8643 13.9132 14.5136C13.5889 14.8378 13.1638 15.0001 12.7389 15.0001C12.3132 15.0001 11.8881 14.8381 11.564 14.5136L7.19999 10.1497L2.83628 14.5135C2.51205 14.8378 2.08687 15.0001 1.66157 15.0001C1.23639 15.0001 0.811506 14.838 0.48699 14.5135C-0.161999 13.8646 -0.161999 12.8128 0.48699 12.1633L4.84997 7.79996L0.486742 3.4364C-0.162247 2.78741 -0.162247 1.73547 0.486742 1.08647C1.13561 0.437973 2.18691 0.437973 2.83603 1.08647L7.19995 5.45007L11.5635 1.08647C12.2128 0.437973 13.2642 0.437973 13.913 1.08647C14.5622 1.73547 14.5622 2.78741 13.9132 3.4364Z" fill="#292F4C"/>
</svg>
