<svg width="326" height="54" viewBox="0 0 326 54" fill="none" xmlns="http://www.w3.org/2000/svg">
<g clip-path="url(#clip0_4305_915)">
<g filter="url(#filter0_d_4305_915)">
<path fill-rule="evenodd" clip-rule="evenodd" d="M25.3346 0C11.3427 0 6.10352e-05 11.3426 6.10352e-05 25.3345C6.10352e-05 39.3263 11.3427 50.669 25.3345 50.669H300.395C301.348 50.669 302.29 50.6163 303.216 50.5137C311.002 53.6779 317.127 53.7294 320.138 53.466C321.221 53.3712 321.824 53.2396 321.849 53.2341C322.125 53.1728 322.34 52.9541 322.396 52.6762C322.452 52.3982 322.338 52.1136 322.106 51.9503C317.783 48.904 316.653 46.1076 316.364 45.0035C322.078 40.3584 325.729 33.2728 325.729 25.3345C325.729 11.3426 314.387 0 300.395 0H25.3346Z" fill="white"/>
</g>
<mask id="mask0_4305_915" style="mask-type:alpha" maskUnits="userSpaceOnUse" x="0" y="0" width="326" height="54">
<path fill-rule="evenodd" clip-rule="evenodd" d="M25.3346 0C11.3427 0 6.10352e-05 11.3426 6.10352e-05 25.3345C6.10352e-05 39.3263 11.3427 50.669 25.3345 50.669H300.395C301.348 50.669 302.29 50.6163 303.216 50.5137C311.002 53.6779 317.127 53.7294 320.138 53.466C321.221 53.3712 321.824 53.2396 321.849 53.2341C322.125 53.1728 322.34 52.9541 322.396 52.6762C322.452 52.3982 322.338 52.1136 322.106 51.9503C317.783 48.904 316.653 46.1076 316.364 45.0035C322.078 40.3584 325.729 33.2728 325.729 25.3345C325.729 11.3426 314.387 0 300.395 0H25.3346Z" fill="white"/>
</mask>
<g mask="url(#mask0_4305_915)">
</g>
<path fill-rule="evenodd" clip-rule="evenodd" d="M90.4804 16.2864C90.4804 15.6868 89.9943 15.2007 89.3946 15.2007C88.795 15.2007 88.3089 15.6868 88.3089 16.2864V33.6587C88.3089 34.2583 88.795 34.7444 89.3946 34.7444C89.9943 34.7444 90.4804 34.2583 90.4804 33.6587V16.2864ZM86.8612 18.458C86.8612 17.8583 86.3751 17.3722 85.7754 17.3722C85.1758 17.3722 84.6897 17.8583 84.6897 18.458V32.211C84.6897 32.8106 85.1758 33.2967 85.7754 33.2967C86.3751 33.2967 86.8612 32.8106 86.8612 32.211V18.458ZM67.6794 22.4391C68.279 22.4391 68.7651 22.9252 68.7651 23.5249V26.4202C68.7651 27.0199 68.279 27.506 67.6794 27.506C67.0797 27.506 66.5936 27.0199 66.5936 26.4202V23.5249C66.5936 22.9252 67.0797 22.4391 67.6794 22.4391ZM57.9075 24.9726C57.9075 24.3729 57.4214 23.8868 56.8217 23.8868C56.2221 23.8868 55.736 24.3729 55.736 24.9726C55.736 25.5722 56.2221 26.0583 56.8217 26.0583C57.4214 26.0583 57.9075 25.5722 57.9075 24.9726ZM61.5267 24.9726C61.5267 24.3729 61.0406 23.8868 60.4409 23.8868C59.8413 23.8868 59.3552 24.3729 59.3552 24.9726C59.3552 25.5722 59.8413 26.0583 60.4409 26.0583C61.0406 26.0583 61.5267 25.5722 61.5267 24.9726ZM82.1562 19.5437C82.7559 19.5437 83.242 20.0299 83.242 20.6295V29.3156C83.242 29.9153 82.7559 30.4014 82.1562 30.4014C81.5566 30.4014 81.0705 29.9153 81.0705 29.3156V20.6295C81.0705 20.0299 81.5566 19.5437 82.1562 19.5437ZM79.6228 21.3533C79.6228 20.7537 79.1367 20.2676 78.537 20.2676C77.9374 20.2676 77.4512 20.7537 77.4512 21.3533V29.3156C77.4512 29.9153 77.9374 30.4014 78.537 30.4014C79.1367 30.4014 79.6228 29.9153 79.6228 29.3156V21.3533ZM74.9178 20.9914C75.5174 20.9914 76.0036 21.4775 76.0036 22.0772V28.5918C76.0036 29.1914 75.5174 29.6775 74.9178 29.6775C74.3181 29.6775 73.832 29.1914 73.832 28.5918V22.0772C73.832 21.4775 74.3181 20.9914 74.9178 20.9914ZM72.3843 22.801C72.3843 22.2014 71.8982 21.7153 71.2986 21.7153C70.6989 21.7153 70.2128 22.2014 70.2128 22.801V27.1441C70.2128 27.7437 70.6989 28.2299 71.2986 28.2299C71.8982 28.2299 72.3843 27.7437 72.3843 27.1441V22.801ZM64.0602 23.163C64.6598 23.163 65.1459 23.6491 65.1459 24.2487V25.6964C65.1459 26.2961 64.6598 26.7822 64.0602 26.7822C63.4605 26.7822 62.9744 26.2961 62.9744 25.6964V24.2487C62.9744 23.6491 63.4605 23.163 64.0602 23.163ZM93.0139 20.2676C93.6135 20.2676 94.0996 20.7537 94.0996 21.3533V28.5918C94.0996 29.1914 93.6135 29.6775 93.0139 29.6775C92.4142 29.6775 91.9281 29.1914 91.9281 28.5918V21.3533C91.9281 20.7537 92.4142 20.2676 93.0139 20.2676ZM97.7188 20.6295C97.7188 20.0299 97.2327 19.5437 96.6331 19.5437C96.0334 19.5437 95.5473 20.0299 95.5473 20.6295V29.3156C95.5473 29.9153 96.0334 30.4014 96.6331 30.4014C97.2327 30.4014 97.7188 29.9153 97.7188 29.3156V20.6295ZM100.252 19.5437C100.852 19.5437 101.338 20.0299 101.338 20.6295V29.3156C101.338 29.9153 100.852 30.4014 100.252 30.4014C99.6526 30.4014 99.1665 29.9153 99.1665 29.3156V20.6295C99.1665 20.0299 99.6526 19.5437 100.252 19.5437ZM104.957 22.0772C104.957 21.4775 104.471 20.9914 103.872 20.9914C103.272 20.9914 102.786 21.4775 102.786 22.0772V28.5918C102.786 29.1914 103.272 29.6775 103.872 29.6775C104.471 29.6775 104.957 29.1914 104.957 28.5918V22.0772ZM107.491 20.2676C108.09 20.2676 108.576 20.7537 108.576 21.3533V28.5918C108.576 29.1914 108.09 29.6775 107.491 29.6775C106.891 29.6775 106.405 29.1914 106.405 28.5918V21.3533C106.405 20.7537 106.891 20.2676 107.491 20.2676ZM112.196 19.1818C112.196 18.5822 111.71 18.0961 111.11 18.0961C110.51 18.0961 110.024 18.5822 110.024 19.1818V30.7633C110.024 31.363 110.51 31.8491 111.11 31.8491C111.71 31.8491 112.196 31.3629 112.196 30.7633V19.1818ZM114.729 19.5437C115.329 19.5437 115.815 20.0299 115.815 20.6295V29.3156C115.815 29.9153 115.329 30.4014 114.729 30.4014C114.129 30.4014 113.643 29.9153 113.643 29.3156V20.6295C113.643 20.0299 114.129 19.5437 114.729 19.5437ZM119.434 22.801C119.434 22.2014 118.948 21.7153 118.348 21.7153C117.749 21.7153 117.263 22.2014 117.263 22.801V27.8679C117.263 28.4676 117.749 28.9537 118.348 28.9537C118.948 28.9537 119.434 28.4676 119.434 27.8679V22.801ZM121.968 20.2676C122.567 20.2676 123.053 20.7537 123.053 21.3533V28.5918C123.053 29.1914 122.567 29.6775 121.968 29.6775C121.368 29.6775 120.882 29.1914 120.882 28.5918V21.3533C120.882 20.7537 121.368 20.2676 121.968 20.2676ZM126.673 20.6295C126.673 20.0299 126.186 19.5437 125.587 19.5437C124.987 19.5437 124.501 20.0299 124.501 20.6295V29.3156C124.501 29.9153 124.987 30.4014 125.587 30.4014C126.186 30.4014 126.673 29.9153 126.673 29.3156V20.6295ZM129.206 20.2676C129.806 20.2676 130.292 20.7537 130.292 21.3533V29.3156C130.292 29.9153 129.806 30.4014 129.206 30.4014C128.606 30.4014 128.12 29.9153 128.12 29.3156V21.3533C128.12 20.7537 128.606 20.2676 129.206 20.2676ZM133.911 22.0772C133.911 21.4775 133.425 20.9914 132.825 20.9914C132.226 20.9914 131.739 21.4775 131.739 22.0772V28.5918C131.739 29.1914 132.226 29.6775 132.825 29.6775C133.425 29.6775 133.911 29.1914 133.911 28.5918V22.0772ZM136.444 21.7153C137.044 21.7153 137.53 22.2014 137.53 22.801V27.1441C137.53 27.7437 137.044 28.2299 136.444 28.2299C135.845 28.2299 135.359 27.7437 135.359 27.1441V22.801C135.359 22.2014 135.845 21.7153 136.444 21.7153ZM141.149 21.3533C141.149 20.7537 140.663 20.2676 140.064 20.2676C139.464 20.2676 138.978 20.7537 138.978 21.3533V29.3156C138.978 29.9153 139.464 30.4014 140.064 30.4014C140.663 30.4014 141.149 29.9153 141.149 29.3156V21.3533ZM143.683 15.9245C144.282 15.9245 144.769 16.4106 144.769 17.0103V32.9348C144.769 33.5345 144.282 34.0206 143.683 34.0206C143.083 34.0206 142.597 33.5345 142.597 32.9348V17.0103C142.597 16.4106 143.083 15.9245 143.683 15.9245ZM148.388 22.801C148.388 22.2014 147.902 21.7153 147.302 21.7153C146.702 21.7153 146.216 22.2014 146.216 22.801V27.1441C146.216 27.7437 146.702 28.2299 147.302 28.2299C147.902 28.2299 148.388 27.7437 148.388 27.1441V22.801ZM150.921 18.8199C151.521 18.8199 152.007 19.306 152.007 19.9057V30.7633C152.007 31.3629 151.521 31.8491 150.921 31.8491C150.322 31.8491 149.836 31.363 149.836 30.7633V19.9057C149.836 19.306 150.322 18.8199 150.921 18.8199ZM218.601 18.458C218.601 17.8583 219.087 17.3722 219.686 17.3722C220.286 17.3722 220.772 17.8583 220.772 18.458V32.211C220.772 32.8106 220.286 33.2967 219.686 33.2967C219.087 33.2967 218.601 32.8106 218.601 32.211V18.458ZM216.067 18.8199C215.467 18.8199 214.981 19.306 214.981 19.9057V30.7633C214.981 31.3629 215.467 31.8491 216.067 31.8491C216.667 31.8491 217.153 31.363 217.153 30.7633V19.9057C217.153 19.306 216.667 18.8199 216.067 18.8199ZM211.362 21.3533C211.362 20.7537 211.848 20.2676 212.448 20.2676C213.048 20.2676 213.534 20.7537 213.534 21.3533V28.5918C213.534 29.1914 213.048 29.6775 212.448 29.6775C211.848 29.6775 211.362 29.1914 211.362 28.5918V21.3533ZM208.829 19.5437C208.229 19.5437 207.743 20.0299 207.743 20.6295V29.3156C207.743 29.9153 208.229 30.4014 208.829 30.4014C209.428 30.4014 209.914 29.9153 209.914 29.3156V20.6295C209.914 20.0299 209.428 19.5437 208.829 19.5437ZM204.124 20.6295C204.124 20.0299 204.61 19.5437 205.209 19.5437C205.809 19.5437 206.295 20.0299 206.295 20.6295V29.3156C206.295 29.9153 205.809 30.4014 205.209 30.4014C204.61 30.4014 204.124 29.9153 204.124 29.3156V20.6295ZM201.59 17.3722C200.991 17.3722 200.505 17.8583 200.505 18.458V31.4871C200.505 32.0868 200.991 32.5729 201.59 32.5729C202.19 32.5729 202.676 32.0868 202.676 31.4871V18.458C202.676 17.8583 202.19 17.3722 201.59 17.3722ZM196.885 21.3533C196.885 20.7537 197.371 20.2676 197.971 20.2676C198.571 20.2676 199.057 20.7537 199.057 21.3533V28.5918C199.057 29.1914 198.571 29.6775 197.971 29.6775C197.371 29.6775 196.885 29.1914 196.885 28.5918V21.3533ZM194.352 18.0961C193.752 18.0961 193.266 18.5822 193.266 19.1818V30.7633C193.266 31.3629 193.752 31.8491 194.352 31.8491C194.951 31.8491 195.438 31.363 195.438 30.7633V19.1818C195.438 18.5822 194.951 18.0961 194.352 18.0961ZM189.647 16.2864C189.647 15.6868 190.133 15.2007 190.733 15.2007C191.332 15.2007 191.818 15.6868 191.818 16.2864V33.6587C191.818 34.2583 191.332 34.7444 190.733 34.7444C190.133 34.7444 189.647 34.2583 189.647 33.6587V16.2864ZM187.113 17.3722C186.514 17.3722 186.028 17.8583 186.028 18.458V31.4871C186.028 32.0868 186.514 32.5729 187.113 32.5729C187.713 32.5729 188.199 32.0868 188.199 31.4871V18.458C188.199 17.8583 187.713 17.3722 187.113 17.3722ZM182.408 18.458C182.408 17.8583 182.895 17.3722 183.494 17.3722C184.094 17.3722 184.58 17.8583 184.58 18.458V31.4871C184.58 32.0868 184.094 32.5729 183.494 32.5729C182.895 32.5729 182.408 32.0868 182.408 31.4871V18.458ZM179.875 19.5437C179.275 19.5437 178.789 20.0299 178.789 20.6295V29.3156C178.789 29.9153 179.275 30.4014 179.875 30.4014C180.475 30.4014 180.961 29.9153 180.961 29.3156V20.6295C180.961 20.0299 180.475 19.5437 179.875 19.5437ZM175.17 21.3533C175.17 20.7537 175.656 20.2676 176.256 20.2676C176.855 20.2676 177.342 20.7537 177.342 21.3533V29.3156C177.342 29.9153 176.855 30.4014 176.256 30.4014C175.656 30.4014 175.17 29.9153 175.17 29.3156V21.3533ZM172.637 20.9914C172.037 20.9914 171.551 21.4775 171.551 22.0772V28.5918C171.551 29.1914 172.037 29.6775 172.637 29.6775C173.236 29.6775 173.722 29.1914 173.722 28.5918V22.0772C173.722 21.4775 173.236 20.9914 172.637 20.9914ZM167.932 22.801C167.932 22.2014 168.418 21.7153 169.017 21.7153C169.617 21.7153 170.103 22.2014 170.103 22.801V27.1441C170.103 27.7437 169.617 28.2299 169.017 28.2299C168.418 28.2299 167.932 27.7437 167.932 27.1441V22.801ZM165.398 20.2676C164.798 20.2676 164.312 20.7537 164.312 21.3533V29.3156C164.312 29.9153 164.798 30.4014 165.398 30.4014C165.998 30.4014 166.484 29.9153 166.484 29.3156V21.3533C166.484 20.7537 165.998 20.2676 165.398 20.2676ZM160.693 19.1818C160.693 18.5822 161.179 18.0961 161.779 18.0961C162.379 18.0961 162.865 18.5822 162.865 19.1818V30.7633C162.865 31.363 162.379 31.8491 161.779 31.8491C161.179 31.8491 160.693 31.3629 160.693 30.7633V19.1818ZM158.16 21.7153C157.56 21.7153 157.074 22.2014 157.074 22.801V27.1441C157.074 27.7437 157.56 28.2299 158.16 28.2299C158.759 28.2299 159.245 27.7437 159.245 27.1441V22.801C159.245 22.2014 158.759 21.7153 158.16 21.7153ZM153.455 19.9057C153.455 19.306 153.941 18.8199 154.54 18.8199C155.14 18.8199 155.626 19.306 155.626 19.9057V30.7633C155.626 31.363 155.14 31.8491 154.54 31.8491C153.941 31.8491 153.455 31.3629 153.455 30.7633V19.9057ZM223.306 17.3722C223.905 17.3722 224.391 17.8583 224.391 18.458V32.211C224.391 32.8106 223.905 33.2967 223.306 33.2967C222.706 33.2967 222.22 32.8106 222.22 32.211V18.458C222.22 17.8583 222.706 17.3722 223.306 17.3722ZM228.011 16.2864C228.011 15.6868 227.524 15.2007 226.925 15.2007C226.325 15.2007 225.839 15.6868 225.839 16.2864V33.6587C225.839 34.2583 226.325 34.7444 226.925 34.7444C227.524 34.7444 228.011 34.2583 228.011 33.6587V16.2864ZM230.544 20.2676C231.144 20.2676 231.63 20.7537 231.63 21.3533V28.5918C231.63 29.1914 231.144 29.6775 230.544 29.6775C229.944 29.6775 229.458 29.1914 229.458 28.5918V21.3533C229.458 20.7537 229.944 20.2676 230.544 20.2676ZM235.249 20.6295C235.249 20.0299 234.763 19.5437 234.163 19.5437C233.564 19.5437 233.077 20.0299 233.077 20.6295V29.3156C233.077 29.9153 233.564 30.4014 234.163 30.4014C234.763 30.4014 235.249 29.9153 235.249 29.3156V20.6295ZM237.782 19.5437C238.382 19.5437 238.868 20.0299 238.868 20.6295V29.3156C238.868 29.9153 238.382 30.4014 237.782 30.4014C237.183 30.4014 236.697 29.9153 236.697 29.3156V20.6295C236.697 20.0299 237.183 19.5437 237.782 19.5437ZM242.487 22.0772C242.487 21.4775 242.001 20.9914 241.402 20.9914C240.802 20.9914 240.316 21.4775 240.316 22.0772V28.5918C240.316 29.1914 240.802 29.6775 241.402 29.6775C242.001 29.6775 242.487 29.1914 242.487 28.5918V22.0772ZM255.878 24.6106C256.478 24.6106 256.964 25.0968 256.964 25.6964C256.964 26.2961 256.478 26.7822 255.878 26.7822C255.279 26.7822 254.793 26.2961 254.793 25.6964C254.793 25.0968 255.279 24.6106 255.878 24.6106ZM260.583 25.6964C260.583 25.0968 260.097 24.6106 259.498 24.6106C258.898 24.6106 258.412 25.0968 258.412 25.6964C258.412 26.2961 258.898 26.7822 259.498 26.7822C260.097 26.7822 260.583 26.2961 260.583 25.6964ZM263.117 24.6106C263.717 24.6106 264.203 25.0968 264.203 25.6964C264.203 26.2961 263.717 26.7822 263.117 26.7822C262.517 26.7822 262.031 26.2961 262.031 25.6964C262.031 25.0968 262.517 24.6106 263.117 24.6106ZM267.822 25.6964C267.822 25.0968 267.336 24.6106 266.736 24.6106C266.136 24.6106 265.65 25.0968 265.65 25.6964C265.65 26.2961 266.136 26.7822 266.736 26.7822C267.336 26.7822 267.822 26.2961 267.822 25.6964ZM248.64 23.163C249.24 23.163 249.726 23.6491 249.726 24.2487V27.1441C249.726 27.7437 249.24 28.2298 248.64 28.2298C248.04 28.2298 247.554 27.7437 247.554 27.1441V24.2487C247.554 23.6491 248.04 23.163 248.64 23.163ZM246.107 23.5249C246.107 22.9252 245.62 22.4391 245.021 22.4391C244.421 22.4391 243.935 22.9252 243.935 23.5249V27.8679C243.935 28.4676 244.421 28.9537 245.021 28.9537C245.62 28.9537 246.107 28.4676 246.107 27.8679V23.5249ZM252.259 23.8868C252.859 23.8868 253.345 24.3729 253.345 24.9726V26.4202C253.345 27.0199 252.859 27.506 252.259 27.506C251.66 27.506 251.173 27.0199 251.173 26.4202V24.9726C251.173 24.3729 251.66 23.8868 252.259 23.8868Z" fill="#F44A4A"/>
<circle r="14.4769" transform="matrix(-1 0 0 1 293.156 25.3345)" fill="#F44A4A"/>
<path d="M288.317 24.5787L295.498 20.1063C295.71 19.9814 295.974 20.0022 296.173 20.0022C296.97 20.0022 296.966 20.61 296.966 20.764V29.905C296.966 30.0352 296.969 30.6668 296.173 30.6668C295.974 30.6668 295.71 30.6875 295.498 30.5626L288.317 26.0903C287.728 25.7436 287.829 25.3345 287.829 25.3345C287.829 25.3345 287.728 24.9253 288.317 24.5787Z" fill="white"/>
</g>
<defs>
<filter id="filter0_d_4305_915" x="-23.9999" y="-16" width="373.729" height="101.564" filterUnits="userSpaceOnUse" color-interpolation-filters="sRGB">
<feFlood flood-opacity="0" result="BackgroundImageFix"/>
<feColorMatrix in="SourceAlpha" type="matrix" values="0 0 0 0 0 0 0 0 0 0 0 0 0 0 0 0 0 0 127 0" result="hardAlpha"/>
<feOffset dy="8"/>
<feGaussianBlur stdDeviation="12"/>
<feColorMatrix type="matrix" values="0 0 0 0 0 0 0 0 0 0 0 0 0 0 0 0 0 0 0.1 0"/>
<feBlend mode="normal" in2="BackgroundImageFix" result="effect1_dropShadow_4305_915"/>
<feBlend mode="normal" in="SourceGraphic" in2="effect1_dropShadow_4305_915" result="shape"/>
</filter>
<clipPath id="clip0_4305_915">
<rect width="325.729" height="53.5644" fill="white" transform="matrix(-1 0 0 1 325.729 0)"/>
</clipPath>
</defs>
</svg>
