<svg width="12" height="18" viewBox="0 0 12 18" fill="none" xmlns="http://www.w3.org/2000/svg">
<path opacity="0.3" fill-rule="evenodd" clip-rule="evenodd" d="M3.26641 8.33045V3.171C3.26641 2.20201 3.84053 1.3554 4.70601 0.870693V3.03389C4.70601 3.28928 4.94128 3.49894 5.23265 3.49894C5.52444 3.49894 5.75887 3.28965 5.75887 3.03389V0.49363C5.95398 0.461142 6.15377 0.439996 6.35998 0.439996C6.56493 0.439996 6.76515 0.461142 6.96026 0.49363V3.03385C6.96026 3.28924 7.196 3.49889 7.48821 3.49889C7.77911 3.49889 8.01485 3.28961 8.01485 3.03385V0.870647C8.87739 1.35535 9.4545 2.20197 9.4545 3.171V8.33045C9.4545 9.8401 8.06748 11.0634 6.35961 11.0634C4.65043 11.0634 3.26641 9.8401 3.26641 8.33045ZM1.36726 16.8008H2.08685L5.30537 15.8326V12.771C2.98228 12.3411 1.23031 10.5171 1.23031 8.33725C1.23031 8.04673 1.49642 7.81174 1.82584 7.81174C1.91274 7.81174 1.997 7.82912 2.07058 7.85822C2.2789 7.94169 2.4248 8.12378 2.4248 8.33725C2.4248 10.2542 4.18872 11.8125 6.35949 11.8125C8.52941 11.8125 10.2959 10.2541 10.2959 8.33725C10.2959 8.1242 10.441 7.94169 10.6476 7.85822C10.7225 7.82912 10.8055 7.81174 10.8923 7.81174C11.2231 7.81174 11.4905 8.04673 11.4905 8.33725C11.4905 10.5167 9.73896 12.3407 7.41287 12.771V15.8322L10.634 16.8008H11.3536C11.579 16.8008 11.76 16.9625 11.76 17.1605V17.3596C11.76 17.5587 11.579 17.72 11.3536 17.72H1.36726C1.14183 17.72 0.959988 17.5587 0.959988 17.3596V17.1605C0.959988 16.9625 1.14178 16.8008 1.36726 16.8008Z" fill="#292F4C"/>
</svg>
