<svg width="268" height="54" viewBox="0 0 268 54" fill="none" xmlns="http://www.w3.org/2000/svg">
<g filter="url(#filter0_d_4307_151)">
<path fill-rule="evenodd" clip-rule="evenodd" d="M26.08 0.0400391C12.1624 0.0400391 0.87999 11.3225 0.87999 25.24C0.87999 39.1576 12.1624 50.44 26.08 50.44H242.8C243.23 50.44 243.657 50.4293 244.081 50.408C252.305 53.4413 258.786 53.4503 261.986 53.1703C263.145 53.0689 263.79 52.934 263.817 52.9284C264.114 52.8656 264.344 52.6465 264.406 52.3696C264.468 52.0926 264.348 51.8101 264.101 51.6491C260.037 48.9977 258.633 46.5238 258.152 45.2257C264.141 40.6187 268 33.3801 268 25.24C268 11.3225 256.718 0.0400391 242.8 0.0400391H26.08Z" fill="#F44A4A"/>
</g>
<mask id="mask0_4307_151" style="mask-type:alpha" maskUnits="userSpaceOnUse" x="0" y="0" width="268" height="54">
<path fill-rule="evenodd" clip-rule="evenodd" d="M26.08 0.0400391C12.1624 0.0400391 0.87999 11.3225 0.87999 25.24C0.87999 39.1576 12.1624 50.44 26.08 50.44H242.8C243.23 50.44 243.657 50.4293 244.081 50.408C252.305 53.4413 258.786 53.4503 261.986 53.1703C263.145 53.0689 263.79 52.934 263.817 52.9284C264.114 52.8656 264.344 52.6465 264.406 52.3696C264.468 52.0926 264.348 51.8101 264.101 51.6491C260.037 48.9977 258.633 46.5238 258.152 45.2257C264.141 40.6187 268 33.3801 268 25.24C268 11.3225 256.718 0.0400391 242.8 0.0400391H26.08Z" fill="white"/>
</mask>
<g mask="url(#mask0_4307_151)">
</g>
<defs>
<filter id="filter0_d_4307_151" x="-23.12" y="-15.96" width="315.12" height="101.244" filterUnits="userSpaceOnUse" color-interpolation-filters="sRGB">
<feFlood flood-opacity="0" result="BackgroundImageFix"/>
<feColorMatrix in="SourceAlpha" type="matrix" values="0 0 0 0 0 0 0 0 0 0 0 0 0 0 0 0 0 0 127 0" result="hardAlpha"/>
<feOffset dy="8"/>
<feGaussianBlur stdDeviation="12"/>
<feColorMatrix type="matrix" values="0 0 0 0 0 0 0 0 0 0 0 0 0 0 0 0 0 0 0.1 0"/>
<feBlend mode="normal" in2="BackgroundImageFix" result="effect1_dropShadow_4307_151"/>
<feBlend mode="normal" in="SourceGraphic" in2="effect1_dropShadow_4307_151" result="shape"/>
</filter>
</defs>
</svg>
