<svg width="139" height="41" viewBox="0 0 139 41" fill="none" xmlns="http://www.w3.org/2000/svg">
<g filter="url(#filter0_d_4307_163)">
<path fill-rule="evenodd" clip-rule="evenodd" d="M120.16 0.52002C130.499 0.52002 138.88 8.90125 138.88 19.24C138.88 29.5788 130.499 37.96 120.16 37.96H22.6486C15.0875 40.9546 9.14708 40.9998 6.202 40.7421C5.12456 40.6479 4.52502 40.517 4.50006 40.5115C4.2249 40.4506 4.01146 40.233 3.9559 39.9566C3.90036 39.6801 4.01329 39.397 4.2437 39.2345C6.59528 37.5775 7.99702 35.9947 8.83163 34.721C3.88683 31.3516 0.639999 25.675 0.639999 19.24C0.639999 8.90125 9.02121 0.52002 19.36 0.52002H120.16Z" fill="white"/>
</g>
<mask id="mask0_4307_163" style="mask-type:alpha" maskUnits="userSpaceOnUse" x="0" y="0" width="139" height="41">
<path fill-rule="evenodd" clip-rule="evenodd" d="M120.16 0.52002C130.499 0.52002 138.88 8.90125 138.88 19.24C138.88 29.5788 130.499 37.96 120.16 37.96H22.6486C15.0875 40.9546 9.14708 40.9998 6.202 40.7421C5.12456 40.6479 4.52502 40.517 4.50006 40.5115C4.2249 40.4506 4.01146 40.233 3.9559 39.9566C3.90036 39.6801 4.01329 39.397 4.2437 39.2345C6.59528 37.5775 7.99702 35.9947 8.83163 34.721C3.88683 31.3516 0.639999 25.675 0.639999 19.24C0.639999 8.90125 9.02121 0.52002 19.36 0.52002H120.16Z" fill="white"/>
</mask>
<g mask="url(#mask0_4307_163)">
</g>
<defs>
<filter id="filter0_d_4307_163" x="-23.36" y="-15.48" width="186.24" height="88.3201" filterUnits="userSpaceOnUse" color-interpolation-filters="sRGB">
<feFlood flood-opacity="0" result="BackgroundImageFix"/>
<feColorMatrix in="SourceAlpha" type="matrix" values="0 0 0 0 0 0 0 0 0 0 0 0 0 0 0 0 0 0 127 0" result="hardAlpha"/>
<feOffset dy="8"/>
<feGaussianBlur stdDeviation="12"/>
<feColorMatrix type="matrix" values="0 0 0 0 0 0 0 0 0 0 0 0 0 0 0 0 0 0 0.1 0"/>
<feBlend mode="normal" in2="BackgroundImageFix" result="effect1_dropShadow_4307_163"/>
<feBlend mode="normal" in="SourceGraphic" in2="effect1_dropShadow_4307_163" result="shape"/>
</filter>
</defs>
</svg>
