<svg width="12" height="11" viewBox="0 0 12 11" fill="none" xmlns="http://www.w3.org/2000/svg">
<path opacity="0.3" fill-rule="evenodd" clip-rule="evenodd" d="M5.13731 2.81886C3.37586 2.9364 2.09229 3.40013 1.28662 4.21022C0.562252 4.93642 0.200104 6.00456 0.199991 7.41488C0.199991 7.65827 0.236445 7.9384 0.309262 8.25542C0.382147 8.57231 0.464601 8.86193 0.556759 9.12419C0.648917 9.38657 0.751928 9.64884 0.865432 9.91128C0.979002 10.1736 1.06578 10.3636 1.12572 10.4811L1.25426 10.733C1.28862 10.8043 1.34856 10.84 1.43425 10.84C1.45997 10.84 1.47924 10.838 1.4921 10.8337C1.59927 10.8002 1.64843 10.7288 1.63996 10.6196C1.45567 8.94059 1.68283 7.75493 2.32143 7.06238C2.59575 6.76435 2.96105 6.53247 3.41745 6.36666C3.87405 6.20087 4.44719 6.0907 5.13713 6.03612V7.61644C5.13713 7.79281 5.2208 7.91651 5.38794 7.98791C5.44367 8.00888 5.49721 8.01938 5.54861 8.01938C5.66435 8.01938 5.76067 7.97951 5.83794 7.89975L9.1293 4.67623C9.21074 4.59644 9.25142 4.50206 9.25142 4.39292C9.25142 4.28381 9.21076 4.1894 9.1293 4.10955L5.83803 0.886011C5.71377 0.755881 5.56374 0.726596 5.38805 0.797825C5.22091 0.86923 5.13731 0.99303 5.13731 1.16932V2.81886ZM10.1579 4.10958C10.2393 4.18934 10.28 4.28375 10.28 4.39295C10.28 4.50213 10.2393 4.59647 10.1579 4.67623L7.60565 7.17576V7.61647C7.60565 7.79284 7.6893 7.91653 7.85643 7.98794C7.91214 8.00891 7.9657 8.01941 8.01713 8.01941C8.13291 8.01941 8.22934 7.97954 8.30646 7.89977L11.5979 4.67625C11.6793 4.59647 11.72 4.50209 11.72 4.39295C11.72 4.28381 11.6793 4.18941 11.5979 4.10958L8.30646 0.886038C8.18222 0.755909 8.03224 0.726623 7.85652 0.797852C7.68939 0.869257 7.60574 0.993058 7.60574 1.16934V1.60379L10.1579 4.10958Z" fill="#292F4C"/>
</svg>
