<svg width="12" height="11" viewBox="0 0 12 11" fill="none" xmlns="http://www.w3.org/2000/svg">
<path opacity="0.4" fill-rule="evenodd" clip-rule="evenodd" d="M10.1579 3.74947C10.2393 3.82923 10.28 3.92364 10.28 4.03284C10.28 4.14202 10.2393 4.23636 10.1579 4.31612L7.60565 6.81565V7.25636C7.60565 7.43273 7.6893 7.55643 7.85643 7.62783C7.91214 7.6488 7.9657 7.6593 8.01713 7.6593C8.13291 7.6593 8.22934 7.61943 8.30646 7.53967L11.5979 4.31615C11.6793 4.23636 11.72 4.14198 11.72 4.03284C11.72 3.92371 11.6793 3.8293 11.5979 3.74947L8.30646 0.525931C8.18222 0.395801 8.03224 0.366516 7.85652 0.437744C7.68939 0.509149 7.60574 0.63295 7.60574 0.809235V1.24368L10.1579 3.74947ZM5.13731 2.45884C3.37586 2.57637 2.09229 3.04011 1.28662 3.85019C0.562252 4.57639 0.200104 5.64453 0.199991 7.05486C0.199991 7.29825 0.236445 7.57838 0.309262 7.8954C0.382147 8.21229 0.464601 8.5019 0.556759 8.76417C0.648917 9.02654 0.751928 9.28881 0.865432 9.55125C0.979002 9.81358 1.06578 10.0035 1.12572 10.1211L1.25426 10.3729C1.28862 10.4443 1.34856 10.48 1.43425 10.48C1.45997 10.48 1.47924 10.4779 1.4921 10.4737C1.59927 10.4401 1.64843 10.3688 1.63996 10.2596C1.45567 8.58056 1.68283 7.3949 2.32143 6.70235C2.59575 6.40432 2.96105 6.17244 3.41745 6.00663C3.87405 5.84084 4.44719 5.73067 5.13713 5.67609V7.25642C5.13713 7.43279 5.2208 7.55648 5.38794 7.62788C5.44367 7.64886 5.49721 7.65935 5.54861 7.65935C5.66435 7.65935 5.76067 7.61948 5.83794 7.53972L9.1293 4.3162C9.21074 4.23642 9.25142 4.14203 9.25142 4.0329C9.25142 3.92378 9.21076 3.82938 9.1293 3.74953L5.83803 0.525985C5.71377 0.395855 5.56374 0.36657 5.38805 0.437799C5.22091 0.509204 5.13731 0.633004 5.13731 0.809289V2.45884Z" fill="white"/>
</svg>
