<svg width="14" height="14" viewBox="0 0 14 14" fill="none" xmlns="http://www.w3.org/2000/svg">
<path opacity="0.3" fill-rule="evenodd" clip-rule="evenodd" d="M8.71886 3.4814C7.13969 1.90223 4.58052 1.90223 3.00136 3.4814C1.42219 5.06056 1.42219 7.61974 3.00136 9.1989C4.58052 10.7781 7.13969 10.7781 8.71886 9.1989C10.298 7.61974 10.298 5.06056 8.71886 3.4814M12.9235 13.4035C12.6073 13.7189 12.0955 13.7189 11.7794 13.4035L9.23312 10.8565C7.01598 12.5141 3.8722 12.3572 1.85802 10.3422C-0.352656 8.13238 -0.352656 4.54873 1.85802 2.33806C4.06788 0.127386 7.65234 0.127386 9.8622 2.33806C11.8772 4.35224 12.0341 7.49602 10.3765 9.71316L12.9235 12.2602C13.2388 12.5756 13.2388 13.0874 12.9235 13.4035" fill="#292F4C"/>
</svg>
