<svg width="87" height="86" viewBox="0 0 87 86" fill="none" xmlns="http://www.w3.org/2000/svg">
<g filter="url(#filter0_d_4307_54)">
<rect x="24.76" y="18.36" width="37.44" height="37.44" rx="18.72" fill="#F44A4A"/>
<path d="M51.0352 29.5003C50.9604 29.4359 50.8539 29.4209 50.7637 29.462L34.4564 36.9044C34.3686 36.9445 34.3121 37.0305 34.3111 37.1256C34.31 37.2207 34.3647 37.3079 34.4516 37.3498L39.0665 39.5745C39.1512 39.6153 39.2521 39.606 39.3277 39.5506L43.8146 36.2564L40.2922 39.8154C40.2419 39.8662 40.2163 39.9358 40.2218 40.0064L40.5725 44.4928C40.5803 44.5922 40.6482 44.6772 40.7446 44.7084C40.7704 44.7167 40.7969 44.7207 40.823 44.7207C40.8949 44.7207 40.9647 44.6905 41.0133 44.6352L43.4628 41.8471L46.4908 43.2682C46.5565 43.2991 46.6326 43.3004 46.6994 43.2718C46.7662 43.2433 46.817 43.1877 46.8388 43.1195L51.1093 29.7598C51.1391 29.6665 51.11 29.5648 51.0352 29.5003Z" fill="white"/>
<mask id="mask0_4307_54" style="mask-type:alpha" maskUnits="userSpaceOnUse" x="34" y="29" width="18" height="16">
<path d="M51.0352 29.5003C50.9604 29.4359 50.8539 29.4209 50.7637 29.462L34.4564 36.9044C34.3686 36.9445 34.3121 37.0305 34.3111 37.1256C34.31 37.2207 34.3647 37.3079 34.4516 37.3498L39.0665 39.5745C39.1512 39.6153 39.2521 39.606 39.3277 39.5506L43.8146 36.2564L40.2922 39.8154C40.2419 39.8662 40.2163 39.9358 40.2218 40.0064L40.5725 44.4928C40.5803 44.5922 40.6482 44.6772 40.7446 44.7084C40.7704 44.7167 40.7969 44.7207 40.823 44.7207C40.8949 44.7207 40.9647 44.6905 41.0133 44.6352L43.4628 41.8471L46.4908 43.2682C46.5565 43.2991 46.6326 43.3004 46.6994 43.2718C46.7662 43.2433 46.817 43.1877 46.8388 43.1195L51.1093 29.7598C51.1391 29.6665 51.11 29.5648 51.0352 29.5003Z" fill="white"/>
</mask>
<g mask="url(#mask0_4307_54)">
</g>
</g>
<defs>
<filter id="filter0_d_4307_54" x="0.76001" y="0.359985" width="85.44" height="85.4399" filterUnits="userSpaceOnUse" color-interpolation-filters="sRGB">
<feFlood flood-opacity="0" result="BackgroundImageFix"/>
<feColorMatrix in="SourceAlpha" type="matrix" values="0 0 0 0 0 0 0 0 0 0 0 0 0 0 0 0 0 0 127 0" result="hardAlpha"/>
<feOffset dy="6"/>
<feGaussianBlur stdDeviation="12"/>
<feColorMatrix type="matrix" values="0 0 0 0 0 0 0 0 0 0 0 0 0 0 0 0 0 0 0.18 0"/>
<feBlend mode="normal" in2="BackgroundImageFix" result="effect1_dropShadow_4307_54"/>
<feBlend mode="normal" in="SourceGraphic" in2="effect1_dropShadow_4307_54" result="shape"/>
</filter>
</defs>
</svg>
