<svg width="14" height="20" viewBox="0 0 14 20" fill="none" xmlns="http://www.w3.org/2000/svg">
<path opacity="0.2" fill-rule="evenodd" clip-rule="evenodd" d="M1.22767 0.52002H12.2924C12.8168 0.52002 13.24 0.951198 13.24 1.4854V14.1765C13.24 14.6153 13.0303 15.0236 12.6782 15.2755L7.40427 19.034C7.01847 19.3087 6.50156 19.3087 6.11576 19.034L0.841864 15.2755C0.489771 15.0236 0.280014 14.6153 0.280014 14.1765V1.4854C0.280014 0.951198 0.703274 0.52002 1.22767 0.52002ZM8.93624 9.32674L10.7379 7.7661C11.0788 7.47229 10.899 6.90375 10.4532 6.8694L8.10471 6.69388L7.21698 4.45404C7.04843 4.03431 6.46785 4.03431 6.2993 4.45404L5.41157 6.69388L3.06304 6.8694C2.61731 6.89993 2.44126 7.46847 2.77837 7.76229L4.58004 9.32292L4.01819 11.6696C3.91331 12.1122 4.38152 12.4633 4.75983 12.2229L6.76001 10.9484L8.75645 12.2267C9.13476 12.4671 9.60297 12.116 9.49809 11.6734L8.93624 9.32674Z" fill="#292F4C"/>
</svg>
