<svg width="127" height="58" viewBox="0 0 127 58" fill="none" xmlns="http://www.w3.org/2000/svg">
<g filter="url(#filter0_d_4307_224)">
<circle cx="97.96" cy="23" r="10.8" fill="url(#paint0_linear_4307_224)"/>
<path fill-rule="evenodd" clip-rule="evenodd" d="M100.23 17.384H95.6901C93.845 17.384 92.344 18.8851 92.344 20.7301V25.27C92.344 27.115 93.845 28.616 95.6901 28.616H100.23C102.075 28.616 103.576 27.115 103.576 25.27V20.7301C103.576 18.8851 102.075 17.384 100.23 17.384ZM102.446 25.2699C102.446 26.4938 101.454 27.486 100.23 27.486H95.69C94.4661 27.486 93.4739 26.4938 93.4739 25.2699V20.73C93.4739 19.5061 94.4661 18.5139 95.69 18.5139H100.23C101.454 18.5139 102.446 19.5061 102.446 20.73V25.2699ZM95.055 22.9999C95.055 21.3981 96.3582 20.0949 97.96 20.0949C99.5618 20.0949 100.865 21.3981 100.865 22.9999C100.865 24.6017 99.5618 25.9049 97.96 25.9049C96.3582 25.9049 95.055 24.6017 95.055 22.9999ZM97.96 24.7749C96.9797 24.7749 96.185 23.9802 96.185 22.9999C96.185 22.0195 96.9797 21.2248 97.96 21.2248C98.9404 21.2248 99.7351 22.0195 99.7351 22.9999C99.7351 23.9802 98.9403 24.7749 97.96 24.7749ZM100.871 20.8129C101.255 20.8129 101.567 20.5012 101.567 20.1168C101.567 19.7323 101.255 19.4207 100.871 19.4207C100.486 19.4207 100.175 19.7323 100.175 20.1168C100.175 20.5012 100.486 20.8129 100.871 20.8129Z" fill="white"/>
<circle cx="63.4" cy="23" r="10.8" fill="#2AA3EF"/>
<path fill-rule="evenodd" clip-rule="evenodd" d="M68.152 20.0323C67.8026 20.1884 67.4263 20.294 67.0321 20.3417C67.4347 20.0985 67.7438 19.7141 67.8892 19.2558C67.5124 19.4808 67.0953 19.6441 66.6508 19.7318C66.2952 19.3502 65.7886 19.1119 65.2278 19.1119C64.1509 19.1119 63.2776 19.9907 63.2776 21.075C63.2776 21.2294 63.2955 21.3788 63.3284 21.5227C61.7081 21.441 60.2717 20.6589 59.31 19.4713C59.1417 19.7613 59.0461 20.0985 59.0461 20.4584C59.0461 21.1394 59.3905 21.7404 59.9133 22.092C59.5935 22.082 59.2927 21.9937 59.0305 21.8465C59.0305 21.8548 59.0305 21.8632 59.0305 21.8715C59.0305 22.8225 59.702 23.6157 60.5943 23.7962C60.4305 23.8412 60.2588 23.8651 60.0805 23.8651C59.9552 23.8651 59.8328 23.8529 59.7137 23.8295C59.962 24.6094 60.6821 25.1771 61.5353 25.1932C60.8677 25.7192 60.0268 26.0331 59.1132 26.0331C58.9561 26.0331 58.8007 26.0242 58.648 26.0059C59.5107 26.563 60.5356 26.8879 61.6371 26.8879C65.2233 26.8879 67.1847 23.8967 67.1847 21.3027C67.1847 21.2172 67.1825 21.1333 67.1791 21.0489C67.5599 20.7722 67.8909 20.4262 68.152 20.0329V20.0323V20.0323Z" fill="white"/>
<circle cx="28.84" cy="23" r="10.8" fill="#3D5A96"/>
<path fill-rule="evenodd" clip-rule="evenodd" d="M29.4076 27.752H27.3008V23.2642H26.248V21.5347H27.3008V20.4973C27.3008 19.0874 27.8952 18.248 29.5841 18.248H30.99V19.9775H30.1116C29.4539 19.9775 29.4102 20.2189 29.4102 20.67L29.4076 21.5347H31L30.8134 23.2642H29.4076V27.752V27.752Z" fill="white"/>
</g>
<defs>
<filter id="filter0_d_4307_224" x="0.039978" y="0.199951" width="126.72" height="57.6" filterUnits="userSpaceOnUse" color-interpolation-filters="sRGB">
<feFlood flood-opacity="0" result="BackgroundImageFix"/>
<feColorMatrix in="SourceAlpha" type="matrix" values="0 0 0 0 0 0 0 0 0 0 0 0 0 0 0 0 0 0 127 0" result="hardAlpha"/>
<feOffset dy="6"/>
<feGaussianBlur stdDeviation="9"/>
<feColorMatrix type="matrix" values="0 0 0 0 0 0 0 0 0 0 0 0 0 0 0 0 0 0 0.08 0"/>
<feBlend mode="normal" in2="BackgroundImageFix" result="effect1_dropShadow_4307_224"/>
<feBlend mode="normal" in="SourceGraphic" in2="effect1_dropShadow_4307_224" result="shape"/>
</filter>
<linearGradient id="paint0_linear_4307_224" x1="87.2321" y1="12.1639" x2="87.16" y2="33.7639" gradientUnits="userSpaceOnUse">
<stop stop-color="#7024C4"/>
<stop offset="0.415461" stop-color="#C21975"/>
<stop offset="0.702206" stop-color="#C74C4D"/>
<stop offset="1" stop-color="#E09B3D"/>
</linearGradient>
</defs>
</svg>
