<svg width="18" height="11" viewBox="0 0 18 11" fill="none" xmlns="http://www.w3.org/2000/svg">
<g opacity="0.3">
<path fill-rule="evenodd" clip-rule="evenodd" d="M2.25058 0.920044H10.1343C11.1742 0.920044 12.0249 1.74597 12.0249 2.79714V9.12295C12.0249 10.1554 11.1742 11 10.1343 11H2.25058C1.21075 11 0.359985 10.1554 0.359985 9.12295V2.79714C0.359985 1.76474 1.21075 0.920044 2.25058 0.920044ZM15.9195 2.08384C16.0141 2.02753 16.1275 1.97122 16.2409 1.95245C16.9783 1.78351 17.64 2.34664 17.64 3.04116V8.84138C17.64 9.04786 17.5833 9.23557 17.4887 9.40451C17.1673 9.94887 16.4867 10.1366 15.9384 9.81747L12.9702 8.12809V3.77323L15.9195 2.08384Z" fill="#292F4C"/>
</g>
</svg>
